name rise30.2954peak35.7071fall66.7804.mot
datacolumns 19
datarows 14
range 16.18161100000000 16.20327700000000
endheader
time	ground_force1_vx	ground_force1_vy	ground_force1_vz	ground_force1_px	ground_force1_py	ground_force1_pz	ground_force2_vx	ground_force2_vy	ground_force2_vz	ground_force2_px	ground_force2_py	ground_force2_pz	ground_torque1_x	ground_torque1_y	ground_torque1_z	ground_torque2_x	ground_torque2_y	ground_torque2_z	
16.18161100000000	-4.61118400000000	42.34667700000000	-12.13280800000000	0.23440400000000	0.00000000000000	0.10209500000000	-34.83565200000000	768.12846700000000	-50.33647400000000	0.06756400000000	0.00000000000000	-0.07607400000000	0.00000000000000	-6.48995900000000	0.00000000000000	0.00000000000000	-10.36213100000000	0.00000000000000	
16.18327700000000	-4.92895200000000	49.81583000000000	-13.60014600000000	0.23997500000000	0.00000000000000	0.10349700000000	-35.60763900000000	765.57056899999998	-50.04979500000000	0.06685200000000	0.00000000000000	-0.07594400000000	0.00000000000000	-7.38064300000000	0.00000000000000	0.00000000000000	-10.36526100000000	0.00000000000000	
16.18494200000000	-5.12359900000000	57.42431700000000	-14.91888500000000	0.24494000000000	0.00000000000000	0.10474500000000	-36.42538500000000	762.92934200000002	-49.74845000000000	0.06612800000000	0.00000000000000	-0.07581200000000	0.00000000000000	-8.20894000000000	0.00000000000000	0.00000000000000	-10.37705200000000	0.00000000000000	
16.18661200000000	-5.18176300000000	65.07673900000000	-16.05727700000000	0.24941000000000	0.00000000000000	0.10586500000000	-37.28766800000000	760.20048099999997	-49.43174900000000	0.06539500000000	0.00000000000000	-0.07567600000000	0.00000000000000	-8.95563900000000	0.00000000000000	0.00000000000000	-10.39734500000000	0.00000000000000	
16.18827100000000	-5.09615700000000	72.69936000000000	-16.99477500000000	0.25347100000000	0.00000000000000	0.10687600000000	-38.19306900000000	757.37953100000004	-49.09900400000000	0.06465300000000	0.00000000000000	-0.07553800000000	0.00000000000000	-9.60748900000000	0.00000000000000	0.00000000000000	-10.42594400000000	0.00000000000000	
16.18994100000000	-4.86538000000000	80.24253899999999	-17.72211200000000	0.25719100000000	0.00000000000000	0.10779600000000	-39.13996800000000	754.46190200000001	-48.74953200000000	0.06390400000000	0.00000000000000	-0.07539800000000	0.00000000000000	-10.15740100000000	0.00000000000000	0.00000000000000	-10.46261900000000	0.00000000000000	
16.19161100000000	-4.49327600000000	87.68076800000000	-18.24045200000000	0.26062600000000	0.00000000000000	0.10863600000000	-40.12655100000000	751.44288600000004	-48.38266200000000	0.06315000000000	0.00000000000000	-0.07525400000000	0.00000000000000	-10.60411400000000	0.00000000000000	0.00000000000000	-10.50710500000000	0.00000000000000	
16.19327800000000	-3.98798000000000	95.01072100000000	-18.55982600000000	0.26381800000000	0.00000000000000	0.10940700000000	-41.15081200000000	748.31767500000001	-47.99773900000000	0.06239000000000	0.00000000000000	-0.07510800000000	0.00000000000000	-10.95144700000000	0.00000000000000	0.00000000000000	-10.55910300000000	0.00000000000000	
16.19494300000000	-3.36077500000000	102.24780900000000	-18.69711600000000	0.26680300000000	0.00000000000000	0.11011900000000	-42.21056000000000	745.08137999999997	-47.59412800000000	0.06162900000000	0.00000000000000	-0.07495800000000	0.00000000000000	-11.20725100000000	0.00000000000000	0.00000000000000	-10.61828300000000	0.00000000000000	
16.19661400000000	-2.62489600000000	109.42179500000000	-18.67381900000000	0.26960900000000	0.00000000000000	0.11077700000000	-43.30341700000000	741.72904900000003	-47.17121900000000	0.06086500000000	0.00000000000000	-0.07480600000000	0.00000000000000	-11.38222200000000	0.00000000000000	0.00000000000000	-10.68427800000000	0.00000000000000	
16.19827900000000	-1.79437800000000	116.57199100000000	-18.51383300000000	0.27226200000000	0.00000000000000	0.11138900000000	-44.42683500000000	738.25568899999996	-46.72843400000000	0.06010200000000	0.00000000000000	-0.07465000000000	0.00000000000000	-11.48867900000000	0.00000000000000	0.00000000000000	-10.75669400000000	0.00000000000000	
16.19993900000000	-0.88304200000000	123.74251300000000	-18.24142100000000	0.27477900000000	0.00000000000000	0.11195900000000	-45.57809200000000	734.65629100000001	-46.26523000000000	0.05934000000000	0.00000000000000	-0.07449000000000	0.00000000000000	-11.53942200000000	0.00000000000000	0.00000000000000	-10.83510400000000	0.00000000000000	
16.20161100000000	0.09632200000000	130.97794099999999	-17.87949500000000	0.27717700000000	0.00000000000000	0.11249200000000	-46.75430800000000	730.92584399999998	-45.78110200000000	0.05858100000000	0.00000000000000	-0.07432800000000	0.00000000000000	-11.54674800000000	0.00000000000000	0.00000000000000	-10.91905200000000	0.00000000000000	
16.20327700000000	1.13255700000000	138.31967700000001	-17.44830800000000	0.27947000000000	0.00000000000000	0.11299100000000	-47.95244900000000	727.05936899999995	-45.27559200000000	0.05782700000000	0.00000000000000	-0.07416100000000	0.00000000000000	-11.52166600000000	0.00000000000000	0.00000000000000	-11.00805400000000	0.00000000000000	
